<?xml version="1.0" encoding="UTF-8"?>
<svg id="Layer_2" data-name="Layer 2" xmlns="http://www.w3.org/2000/svg" xmlns:xlink="http://www.w3.org/1999/xlink" viewBox="0 0 485.62 485.62">
  <defs>
    <style>
      .cls-1 {
        fill: #fff;
      }

      .cls-2 {
        fill: url(#linear-gradient);
      }
    </style>
    <linearGradient id="linear-gradient" x1="150" y1="319.64" x2="511.71" y2="20.19" gradientUnits="userSpaceOnUse">
      <stop offset="0" stop-color="#16006d"/>
      <stop offset="1" stop-color="#374bdd"/>
    </linearGradient>
  </defs>
  <g id="Layer_1-2" data-name="Layer 1">
    <g>
      <rect class="cls-2" width="485.62" height="485.62" rx="27.67" ry="27.67"/>
      <g>
        <path class="cls-1" d="M386.16,225.92c-6.93-6.31-16.14-10.16-26.24-10.16-3.95,0-7.77.59-11.36,1.69-6.26,1.9-11.86,5.34-16.35,9.88,0,.01-.02.03-.03.04-1.12,1.13-2.16,2.33-3.13,3.58-1.83,2.37-3.39,4.95-4.64,7.71-.1.22-.2.45-.3.68h0s-34.35,50.94-34.35,50.94l-19.59,29.04c-5.22,7.73-13.93,12.37-23.26,12.37h-68.54l27.38-40.59,7.11-10.55,35.17-52.14.23-.34,33.65-49.89s0-.01.01-.02l.84-1.25,7.15-10.6h0s.02-.02.03-.03c.01-.01.03-.03.03-.04,7.07-7.14,16.87-11.56,27.71-11.56,10.11,0,19.32,3.85,26.24,10.16,0,0,0,0,0,0,1.21,1.1,2.34,2.28,3.4,3.52l4.97,7.37,7.36,10.91,26.5,39.29Z"/>
        <path class="cls-1" d="M455.07,331.68h-67.22c-.43,0-.83-.21-1.07-.57l-25.24-37.42h0c-5.73-8.5-5.7-19.64.09-28.11l25.81-37.79,9.08,13.47,59.64,88.41c.58.86-.04,2.01-1.07,2.01Z"/>
        <path class="cls-1" d="M246.79,226.57c-7-6.69-16.5-10.81-26.94-10.81-3.97,0-7.81.6-11.42,1.7h0c-7.2,2.2-13.51,6.44-18.27,12.03,0,0,0,0,0,.01-.19.22-.38.45-.56.68-1.64,2.02-3.09,4.2-4.3,6.53l-.99,1.47-54.72,81.12c-5.22,7.74-13.94,12.37-23.27,12.37H37.76l104.8-155.36.19.28c.32-.71.67-1.4,1.04-2.09v-.02s4.39-6.48,4.39-6.48c0,0,0-.01.01-.02.7-.84,1.44-1.66,2.21-2.44.01-.01.03-.03.03-.04,7.07-7.14,16.87-11.56,27.71-11.56,10.11,0,19.32,3.85,26.24,10.16,0,0,0,0,0,0,.25.23.5.46.74.69h0s9.22,13.68,9.22,13.68h0s5.1,7.56,5.1,7.56l27.33,40.53Z"/>
      </g>
    </g>
  </g>
</svg>