<?xml version="1.0" encoding="UTF-8"?>
<svg id="Layer_2" data-name="Layer 2" xmlns="http://www.w3.org/2000/svg" viewBox="0 0 805.71 342.11">
  <defs>
    <style>
      .cls-1 {
        fill: #fff;
      }
    </style>
  </defs>
  <g id="Layer_1-2" data-name="Layer 1">
    <g>
      <path class="cls-1" d="M670.6,138.55c-13.33-12.14-31.06-19.55-50.51-19.55-7.61,0-14.95,1.13-21.87,3.25-12.05,3.66-22.82,10.28-31.47,19.01,0,.02-.04.05-.06.07-2.15,2.17-4.16,4.48-6.02,6.9-3.52,4.56-6.53,9.53-8.93,14.84-.2.43-.39.86-.57,1.3h-.01s-66.12,98.04-66.12,98.04l-37.7,55.9c-10.04,14.88-26.82,23.8-44.77,23.8h-131.93l52.7-78.12,13.69-20.3,67.69-100.36.45-.65,64.77-96.03s.01-.02.02-.03l1.62-2.4,13.77-20.41h0s.03-.04.05-.06c.02-.02.05-.05.06-.07,13.61-13.74,32.48-22.26,53.34-22.26,19.45,0,37.18,7.41,50.51,19.55.01,0,.01.01.01.01,2.32,2.12,4.51,4.38,6.54,6.77l9.57,14.19,14.16,20.99,51.01,75.62Z"/>
      <path class="cls-1" d="M803.22,342.11h-129.39c-.83,0-1.6-.41-2.06-1.1l-48.59-72.03h0c-11.04-16.37-10.97-37.81.16-54.11l49.69-72.73,17.47,25.92,114.79,170.17c1.11,1.65-.07,3.88-2.06,3.88Z"/>
      <path class="cls-1" d="M402.33,139.8c-13.47-12.88-31.75-20.8-51.86-20.8-7.65,0-15.04,1.15-21.99,3.28h-.01c-13.86,4.24-26.01,12.39-35.17,23.16-.01,0-.01.01-.01.02-.37.43-.73.86-1.08,1.3-3.16,3.88-5.94,8.09-8.27,12.56l-1.91,2.83-105.32,156.15c-10.04,14.89-26.83,23.81-44.79,23.81H0L201.71,43.07l.36.53c.62-1.36,1.29-2.7,2-4.02l.03-.05,8.42-12.48s.01-.02.02-.03c1.35-1.62,2.78-3.19,4.26-4.69.02-.02.05-.05.06-.07C230.47,8.52,249.34,0,270.2,0c19.45,0,37.18,7.41,50.51,19.55.01,0,.01,0,.01,0,.49.44.96.89,1.43,1.34h0s17.75,26.33,17.75,26.33h.01s9.81,14.56,9.81,14.56l52.61,78.01Z"/>
    </g>
  </g>
</svg>